GIL04_slow3_ik
nRows=3
nColumns=375

# SIMM Motion File Header:
name GIL04_slow3_ik
datacolumns 375
datarows 3
otherdata 1
range 0.41667000 0.43333000
endheader
time	pelvis_tx	pelvis_ty	pelvis_tz	pelvis_tilt	pelvis_list	pelvis_rotation	hip_flexion_r	hip_adduction_r	hip_rotation_r	knee_angle_r	ankle_angle_r	hip_flexion_l	hip_adduction_l	hip_rotation_l	knee_angle_l	ankle_angle_l	lumbar_extension	lumbar_bending	lumbar_rotation	subtalar_angle_r	mtp_angle_r	subtalar_angle_l	mtp_angle_l	asis_r_px	asis_r_py	asis_r_pz	asis_l_px	asis_l_py	asis_l_pz	midasis_px	midasis_py	midasis_pz	psis_r_px	psis_r_py	psis_r_pz	psis_l_px	psis_l_py	psis_l_pz	hip_r_px	hip_r_py	hip_r_pz	hip_l_px	hip_l_py	hip_l_pz	midhip_px	midhip_py	midhip_pz	epicondLat_r_px	epicondLat_r_py	epicondLat_r_pz	epicondMed_r_px	epicondMed_r_py	epicondMed_r_pz	thighwand_r_px	thighwand_r_py	thighwand_r_pz	upperleg1_r_px	upperleg1_r_py	upperleg1_r_pz	upperleg2_r_px	upperleg2_r_py	upperleg2_r_pz	malleolusLat_r_px	malleolusLat_r_py	malleolusLat_r_pz	malleolusMedv_r_px	malleolusMedv_r_py	malleolusMedv_r_pz	shankwand_r_px	shankwand_r_py	shankwand_r_pz	lowerleg1_r_px	lowerleg1_r_py	lowerleg1_r_pz	knee_r_px	knee_r_py	knee_r_pz	ankle_r_px	ankle_r_py	ankle_r_pz	toe_r_px	toe_r_py	toe_r_pz	epicondLat_l_px	epicondLat_l_py	epicondLat_l_pz	epicondMed_l_px	epicondMed_l_py	epicondMed_l_pz	thighwand_l_px	thighwand_l_py	thighwand_l_pz	upperleg1_l_px	upperleg1_l_py	upperleg1_l_pz	upperleg2_l_px	upperleg2_l_py	upperleg2_l_pz	malleolusLat_l_px	malleolusLat_l_py	malleolusLat_l_pz	malleolusMedv_l_px	malleolusMedv_l_py	malleolusMedv_l_pz	shankwand_l_px	shankwand_l_py	shankwand_l_pz	lowerleg1_l_px	lowerleg1_l_py	lowerleg1_l_pz	knee_l_px	knee_l_py	knee_l_pz	ankle_l_px	ankle_l_py	ankle_l_pz	toe_l_px	toe_l_py	toe_l_pz	subclavicle_r_px	subclavicle_r_py	subclavicle_r_pz	subclavicle_l_px	subclavicle_l_py	subclavicle_l_pz	neck_px	neck_py	neck_pz	sternalnotch_px	sternalnotch_py	sternalnotch_pz	xyphoidprocess_px	xyphoidprocess_py	xyphoidprocess_pz	midhip_tx	midhip_ty	midhip_tz	hip_r_tx	hip_r_ty	hip_r_tz	hip_l_tx	hip_l_ty	hip_l_tz	knee_r_tx	knee_r_ty	knee_r_tz	knee_l_tx	knee_l_ty	knee_l_tz	ankle_r_tx	ankle_r_ty	ankle_r_tz	ankle_l_tx	ankle_l_ty	ankle_l_tz	midasis_tx	midasis_ty	midasis_tz	asis_r_tx	asis_r_ty	asis_r_tz	asis_l_tx	asis_l_ty	asis_l_tz	psis_r_tx	psis_r_ty	psis_r_tz	psis_l_tx	psis_l_ty	psis_l_tz	epicondLat_r_tx	epicondLat_r_ty	epicondLat_r_tz	epicondLat_l_tx	epicondLat_l_ty	epicondLat_l_tz	epicondMed_r_tx	epicondMed_r_ty	epicondMed_r_tz	epicondMed_l_tx	epicondMed_l_ty	epicondMed_l_tz	malleolusLat_r_tx	malleolusLat_r_ty	malleolusLat_r_tz	malleolusLat_l_tx	malleolusLat_l_ty	malleolusLat_l_tz	malleolusMedv_r_tx	malleolusMedv_r_ty	malleolusMedv_r_tz	malleolusMedv_l_tx	malleolusMedv_l_ty	malleolusMedv_l_tz	neck_tx	neck_ty	neck_tz	subclavicle_r_tx	subclavicle_r_ty	subclavicle_r_tz	subclavicle_l_tx	subclavicle_l_ty	subclavicle_l_tz	sternalnotch_tx	sternalnotch_ty	sternalnotch_tz	xyphoidprocess_tx	xyphoidprocess_ty	xyphoidprocess_tz	thighwand_r_tx	thighwand_r_ty	thighwand_r_tz	thighwand_l_tx	thighwand_l_ty	thighwand_l_tz	upperleg1_r_tx	upperleg1_r_ty	upperleg1_r_tz	upperleg1_l_tx	upperleg1_l_ty	upperleg1_l_tz	upperleg2_r_tx	upperleg2_r_ty	upperleg2_r_tz	upperleg2_l_tx	upperleg2_l_ty	upperleg2_l_tz	shankwand_r_tx	shankwand_r_ty	shankwand_r_tz	shankwand_l_tx	shankwand_l_ty	shankwand_l_tz	lowerleg1_r_tx	lowerleg1_r_ty	lowerleg1_r_tz	lowerleg1_l_tx	lowerleg1_l_ty	lowerleg1_l_tz	toe_r_tx	toe_r_ty	toe_r_tz	toe_l_tx	toe_l_ty	toe_l_tz	ground_force_vx	ground_force_vy	ground_force_vz	ground_force_px	ground_force_py	ground_force_pz	ground_force_vx	ground_force_vy	ground_force_vz	ground_force_px	ground_force_py	ground_force_pz	ground_torque_x	ground_torque_y	ground_torque_z	ground_torque_x	ground_torque_y	ground_torque_z	ground_marker_px	ground_marker_py	ground_marker_pz	ground_marker_px	ground_marker_py	ground_marker_pz	ground_marker_px	ground_marker_py	ground_marker_pz	ground_marker_px	ground_marker_py	ground_marker_pz	ground_marker_px	ground_marker_py	ground_marker_pz	ground_marker_px	ground_marker_py	ground_marker_pz	ground_marker_px	ground_marker_py	ground_marker_pz	ground_marker_px	ground_marker_py	ground_marker_pz	ground_marker_px	ground_marker_py	ground_marker_pz	ground_marker_px	ground_marker_py	ground_marker_pz	ground_marker_px	ground_marker_py	ground_marker_pz	ground_marker_px	ground_marker_py	ground_marker_pz	ground_marker_px	ground_marker_py	ground_marker_pz	ground_marker_px	ground_marker_py	ground_marker_pz	ground_marker_px	ground_marker_py	ground_marker_pz	ground_marker_px	ground_marker_py	ground_marker_pz	ground_marker_px	ground_marker_py	ground_marker_pz	ground_marker_px	ground_marker_py	ground_marker_pz	ground_marker_px	ground_marker_py	ground_marker_pz	ground_marker_px	ground_marker_py	ground_marker_pz	ground_marker_px	ground_marker_py	ground_marker_pz	ground_marker_px	ground_marker_py	ground_marker_pz	ground_marker_px	ground_marker_py	ground_marker_pz	ground_marker_px	ground_marker_py	ground_marker_pz	ground_marker_px	ground_marker_py	ground_marker_pz	ground_marker_px	ground_marker_py	ground_marker_pz	ground_marker_px	ground_marker_py	ground_marker_pz	ground_marker_px	ground_marker_py	ground_marker_pz	ground_marker_px	ground_marker_py	ground_marker_pz	ground_marker_px	ground_marker_py	ground_marker_pz	ground_marker_px	ground_marker_py	ground_marker_pz	ground_marker_px	ground_marker_py	ground_marker_pz	ground_marker_px	ground_marker_py	ground_marker_pz	ground_marker_px	ground_marker_py	ground_marker_pz	ground_marker_px	ground_marker_py	ground_marker_pz	ground_marker_px	ground_marker_py	ground_marker_pz	ground_marker_px	ground_marker_py	ground_marker_pz
      0.41667000	      0.35575914	      0.73987393	     -0.22210997	     -0.70204275	      0.43417597	      0.89611219	     -5.52468102	      4.75092334	      3.44895661	     -6.63676430	     10.14945919	     25.60913665	     -1.80061850	     -8.99971406	    -29.29714884	      2.62798268	     -6.68314880	     -0.45188653	      5.39816112	      0.00000000	      0.00000000	      0.00000000	      0.00000000	      0.46162362	      0.72641799	     -0.14393957	      0.46491784	      0.71876553	     -0.33058581	      0.36597454	      0.73974997	     -0.22226976	      0.32905609	      0.79393315	     -0.22319548	      0.32855230	      0.78683059	     -0.27766675	      0.30452767	      0.69179088	     -0.16073832	      0.30263301	      0.69273762	     -0.28259885	      0.30358034	      0.69226425	     -0.22166858	      0.30723835	      0.34684883	     -0.13522321	      0.29955739	      0.35571970	     -0.23504781	      0.33433304	      0.44339891	     -0.05764909	      0.37838265	      0.49637807	     -0.12577968	      0.36737288	      0.41363116	     -0.14167775	      0.21764097	      0.03608833	     -0.15251831	      0.22155331	      0.04565970	     -0.21173582	      0.22717378	      0.14013016	     -0.07847491	      0.25036235	      0.19214127	     -0.13850136	      0.26575697	      0.36833089	     -0.18955725	      0.19440271	      0.05783020	     -0.21494280	      0.31986435	      0.00965683	     -0.17951292	      0.47065387	      0.40077075	     -0.37465541	      0.49347065	      0.39455905	     -0.27324548	      0.56394923	      0.54020749	     -0.37465704	      0.49440247	      0.57109377	     -0.30419105	      0.51099697	      0.48492948	     -0.30211994	      0.41840635	      0.06260562	     -0.36254627	      0.43134343	      0.06379532	     -0.30020800	      0.52051937	      0.14890749	     -0.38093633	      0.47336368	      0.21199894	     -0.34867771	      0.44148727	      0.39467789	     -0.29750135	      0.41928129	      0.07613535	     -0.28393379	      0.51943613	      0.03048736	     -0.35885801	      0.34368148	      1.13164791	     -0.16010881	      0.34162631	      1.14485968	     -0.27473276	      0.26175812	      1.13864610	     -0.21508441	      0.34384458	      1.12620583	     -0.22142362	      0.43102119	      1.01206161	     -0.23547422	      0.31112500	      0.68588900	     -0.22522100	      0.30526400	      0.69112500	     -0.15865300	      0.30408100	      0.69248900	     -0.28446900	      0.27015200	      0.38272700	     -0.19101300	      0.44127200	      0.39650200	     -0.29594900	      0.19686700	      0.05997900	     -0.19697800	      0.41565100	      0.07867800	     -0.30056900	      0.36911300	      0.75659100	     -0.22146500	      0.36999700	      0.75557200	     -0.12746800	      0.36822900	      0.75761000	     -0.31546200	      0.22566100	      0.79314600	     -0.20377800	      0.22239400	      0.78633400	     -0.25837300	      0.27307600	      0.37713600	     -0.14090800	      0.43315100	      0.39465000	     -0.34525000	      0.26352900	      0.38378200	     -0.23962700	      0.46110900	      0.39790700	     -0.24136100	      0.19416800	      0.05997500	     -0.16358700	      0.40223500	      0.08022100	     -0.33231600	      0.19428400	      0.06991300	     -0.22298600	      0.41407400	      0.08477500	     -0.27151300	      0.26908600	      1.14176300	     -0.21513600	      0.35280400	      1.09430000	     -0.15628600	      0.34282600	      1.09751300	     -0.28524300	      0.34205200	      1.08450200	     -0.22320200	      0.36069900	      0.94183500	     -0.22743100	      0.28865900	      0.45811100	     -0.05397900	      0.51676100	      0.54342400	     -0.34782400	      0.32380400	      0.52073800	     -0.11543700	      0.44432200	      0.57153600	     -0.28367700	      0.32397800	      0.43981100	     -0.14022500	      0.47013600	      0.48755300	     -0.27541900	      0.20961500	      0.15775100	     -0.08623700	      0.49588200	      0.17077300	     -0.35687000	      0.22497900	      0.21288700	     -0.14467600	      0.45144400	      0.23147200	     -0.32386800	      0.29223400	      0.03794200	     -0.19907300	      0.49907600	      0.05763700	     -0.32023700	     -2.60740657	    290.81198263	     -5.03019363	      0.29981674	      0.00000000	     -0.20460797	      0.00000000	      0.00000000	      0.00000000	      0.68822290	      0.00000000	     -0.28595529	      0.00000000	      1.12788037	      0.00000000	      0.00000000	      0.00000000	      0.00000000	      0.31112471	      0.68588853	     -0.22522098	      0.30526444	      0.69112533	     -0.15865324	      0.30408114	      0.69248945	     -0.28446919	      0.27015194	      0.38272664	     -0.19101256	      0.44127244	      0.39650244	     -0.29594895	      0.19686736	      0.05997911	     -0.19697805	      0.41565076	      0.07867787	     -0.30056903	      0.36911288	      0.75659114	     -0.22146486	      0.36999691	      0.75557202	     -0.12746769	      0.36822885	      0.75761026	     -0.31546202	      0.22566132	      0.79314590	     -0.20377783	      0.22239441	      0.78633416	     -0.25837284	      0.27307567	      0.37713647	     -0.14090814	      0.43315059	      0.39465007	     -0.34525013	      0.26352891	      0.38378176	     -0.23962691	      0.46110928	      0.39790723	     -0.24136071	      0.19416805	      0.05997485	     -0.16358697	      0.40223542	      0.08022086	     -0.33231643	      0.19428383	      0.06991290	     -0.22298586	      0.41407445	      0.08477457	     -0.27151307	      0.26908630	      1.14176297	     -0.21513636	      0.35280377	      1.09429967	     -0.15628596	      0.34282598	      1.09751344	     -0.28524297	      0.34205234	      1.08450186	     -0.22320233	      0.36069909	      0.94183487	     -0.22743100	      0.28865945	      0.45811129	     -0.05397893	      0.51676118	      0.54342431	     -0.34782439	      0.32380423	      0.52073830	     -0.11543670	      0.44432208	      0.57153636	     -0.28367731	      0.32397750	      0.43981129	     -0.14022480	      0.47013602	      0.48755252	     -0.27541894	      0.20961490	      0.15775080	     -0.08623660	      0.49588186	      0.17077349	     -0.35686985	      0.22497851	      0.21288723	     -0.14467587	      0.45144361	      0.23147190	     -0.32386762	      0.29223353	      0.03794250	     -0.19907302	      0.49907562	      0.05763724	     -0.32023689
      0.42500000	      0.36263193	      0.73879101	     -0.22284429	     -0.67513582	      0.39018398	      0.95714079	     -6.51972063	      4.76906756	      3.90050946	     -5.94955575	     10.13804902	     25.77379738	     -1.65285477	     -9.41571328	    -26.56408650	      2.15480052	     -6.75477770	     -0.39041409	      5.33837312	      0.00000000	      0.00000000	      0.00000000	      0.00000000	      0.46858672	      0.72544459	     -0.14477755	      0.47168412	      0.71765274	     -0.33142140	      0.37284721	      0.73867179	     -0.22301497	      0.33590190	      0.79283665	     -0.22394191	      0.33534300	      0.78569271	     -0.27840724	      0.31148938	      0.69072989	     -0.16138136	      0.30946338	      0.69158369	     -0.28324047	      0.31047638	      0.69115679	     -0.22231092	      0.30884175	      0.34578202	     -0.13593843	      0.30041148	      0.35480415	     -0.23568898	      0.33819041	      0.44185889	     -0.05859713	      0.38248013	      0.49413693	     -0.12711256	      0.36998972	      0.41158363	     -0.14292256	      0.21789884	      0.03593067	     -0.15281381	      0.22139056	      0.04554821	     -0.21205014	      0.22845485	      0.13985185	     -0.07873980	      0.25139786	      0.19182702	     -0.13889161	      0.26715003	      0.36800332	     -0.18988436	      0.19426827	      0.05783829	     -0.21503273	      0.31978661	      0.00906564	     -0.18063873	      0.47796388	      0.39967857	     -0.37461359	      0.50146495	      0.39417167	     -0.27331928	      0.57073834	      0.53945478	     -0.37607635	      0.50153863	      0.57051590	     -0.30534604	      0.51846644	      0.48442749	     -0.30285835	      0.44208290	      0.06142283	     -0.36279994	      0.45545276	      0.06314397	     -0.30056547	      0.53954283	      0.15282028	     -0.38180900	      0.48951960	      0.21337980	     -0.34902137	      0.44885717	      0.39410979	     -0.29715653	      0.44291501	      0.07482551	     -0.28416523	      0.54444889	      0.03349257	     -0.35973526	      0.35078313	      1.13047420	     -0.16075394	      0.34874864	      1.14370527	     -0.27537603	      0.26887024	      1.13754548	     -0.21573578	      0.35094743	      1.12504146	     -0.22206957	      0.43803525	      1.01083069	     -0.23613000	      0.31778500	      0.68494800	     -0.22560400	      0.31208200	      0.69022500	     -0.15899400	      0.31078600	      0.69146600	     -0.28481000	      0.27174800	      0.38282000	     -0.19096800	      0.44911400	      0.39560500	     -0.29517300	      0.19698000	      0.06043900	     -0.19733100	      0.43929900	      0.07643100	     -0.30129500	      0.37584600	      0.75565700	     -0.22192700	      0.37681400	      0.75473100	     -0.12799000	      0.37487800	      0.75658400	     -0.31586400	      0.23239600	      0.79220400	     -0.20441300	      0.22923300	      0.78523300	     -0.25898300	      0.27502800	      0.37718100	     -0.14089100	      0.44070100	      0.39339600	     -0.34441000	      0.26485800	      0.38438600	     -0.23969900	      0.46827700	      0.39692500	     -0.24092300	      0.19417600	      0.06043100	     -0.16394900	      0.42560200	      0.07745900	     -0.33294300	      0.19446900	      0.07043000	     -0.22329300	      0.43775600	      0.08212700	     -0.27215100	      0.27621800	      1.14084900	     -0.21575300	      0.36001700	      1.09334800	     -0.15692200	      0.34983400	      1.09654000	     -0.28595100	      0.34916200	      1.08352100	     -0.22390800	      0.36771700	      0.94086400	     -0.22808900	      0.29269700	      0.45792000	     -0.05411800	      0.52315600	      0.54218000	     -0.34819100	      0.32810200	      0.52019800	     -0.11578800	      0.45073700	      0.57032500	     -0.28381400	      0.32698000	      0.43942100	     -0.14073600	      0.47685800	      0.48648700	     -0.27535200	      0.20984700	      0.15815500	     -0.08644200	      0.51428100	      0.17298000	     -0.35750100	      0.22561400	      0.21328800	     -0.14487800	      0.46698300	      0.23101200	     -0.32380200	      0.29226600	      0.03793600	     -0.19914500	      0.52358800	      0.05893300	     -0.32114800	     -0.30179317	    293.09370427	     -5.05210991	      0.30029590	      0.00000000	     -0.20480161	      0.00000000	      0.00000000	      0.00000000	      0.68953583	      0.00000000	     -0.28635406	      0.00000000	      1.18851379	      0.00000000	      0.00000000	      0.00000000	      0.00000000	      0.31778508	      0.68494833	     -0.22560424	      0.31208247	      0.69022512	     -0.15899412	      0.31078589	      0.69146580	     -0.28481022	      0.27174845	      0.38281998	     -0.19096752	      0.44911405	      0.39560494	     -0.29517272	      0.19697976	      0.06043935	     -0.19733113	      0.43929890	      0.07643106	     -0.30129549	      0.37584627	      0.75565720	     -0.22192682	      0.37681431	      0.75473082	     -0.12798977	      0.37487820	      0.75658351	     -0.31586388	      0.23239601	      0.79220414	     -0.20441291	      0.22923267	      0.78523290	     -0.25898322	      0.27502790	      0.37718114	     -0.14089058	      0.44070095	      0.39339599	     -0.34441030	      0.26485842	      0.38438582	     -0.23969869	      0.46827668	      0.39692527	     -0.24092348	      0.19417626	      0.06043061	     -0.16394864	      0.42560229	      0.07745937	     -0.33294350	      0.19446887	      0.07043006	     -0.22329347	      0.43775624	      0.08212668	     -0.27215081	      0.27621847	      1.14084911	     -0.21575281	      0.36001700	      1.09334791	     -0.15692164	      0.34983376	      1.09654045	     -0.28595150	      0.34916207	      1.08352089	     -0.22390819	      0.36771742	      0.94086415	     -0.22808868	      0.29269719	      0.45791981	     -0.05411798	      0.52315593	      0.54217994	     -0.34819111	      0.32810175	      0.52019757	     -0.11578783	      0.45073700	      0.57032454	     -0.28381386	      0.32697979	      0.43942109	     -0.14073627	      0.47685841	      0.48648661	     -0.27535221	      0.20984748	      0.15815511	     -0.08644150	      0.51428121	      0.17297982	     -0.35750079	      0.22561431	      0.21328813	     -0.14487778	      0.46698269	      0.23101163	     -0.32380188	      0.29226640	      0.03793584	     -0.19914462	      0.52358830	      0.05893278	     -0.32114786
      0.43333000	      0.36957525	      0.73763233	     -0.22352916	     -0.65955328	      0.33000907	      1.00974130	     -7.49547891	      4.80203823	      4.33329659	     -5.28388500	     10.11850328	     25.87703605	     -1.50886912	     -9.80076796	    -23.76204137	      1.63182462	     -6.79749485	     -0.33825004	      5.36138776	      0.00000000	      0.00000000	      0.00000000	      0.00000000	      0.47560631	      0.72439646	     -0.14554720	      0.47853229	      0.71641144	     -0.33218564	      0.37979040	      0.73751578	     -0.22370921	      0.34282918	      0.79166940	     -0.22465808	      0.34222161	      0.78446868	     -0.27911541	      0.31850326	      0.68962096	     -0.16196875	      0.31636369	      0.69034752	     -0.28382675	      0.31743348	      0.68998424	     -0.22289775	      0.31051701	      0.34475219	     -0.13656924	      0.30139377	      0.35394111	     -0.23624356	      0.34205852	      0.44031918	     -0.05945978	      0.38660585	      0.49189969	     -0.12833593	      0.37265542	      0.40956326	     -0.14405570	      0.21816468	      0.03582533	     -0.15309529	      0.22126948	      0.04549594	     -0.21234452	      0.22973450	      0.13961071	     -0.07898230	      0.25247703	      0.19155071	     -0.13924053	      0.26866391	      0.36771261	     -0.19014680	      0.19418273	      0.05791325	     -0.21511572	      0.31970985	      0.00848553	     -0.18170287	      0.48502112	      0.39828625	     -0.37440796	      0.50913477	      0.39345727	     -0.27322309	      0.57744914	      0.53827001	     -0.37727797	      0.50859504	      0.56960113	     -0.30632979	      0.52574410	      0.48356993	     -0.30341512	      0.46538059	      0.06080414	     -0.36319349	      0.47914071	      0.06304551	     -0.30106074	      0.55795383	      0.15704770	     -0.38270369	      0.50520270	      0.21492646	     -0.34935441	      0.45589230	      0.39324795	     -0.29666041	      0.46616059	      0.07403963	     -0.28452994	      0.56888630	      0.03699522	     -0.36071071	      0.35794525	      1.12927331	     -0.16154035	      0.35577786	      1.14249422	     -0.27616118	      0.27596903	      1.13637896	     -0.21642328	      0.35803239	      1.12383453	     -0.22285561	      0.44504769	      1.00958019	     -0.23701069	      0.32447000	      0.68393900	     -0.22597400	      0.31893900	      0.68927000	     -0.15932800	      0.31754000	      0.69035700	     -0.28514400	      0.27345700	      0.38294800	     -0.19091900	      0.45661000	      0.39447900	     -0.29434300	      0.19711600	      0.06093700	     -0.19765900	      0.46263400	      0.07476000	     -0.30205000	      0.38263700	      0.75464000	     -0.22239200	      0.38368000	      0.75382900	     -0.12851200	      0.38159300	      0.75545100	     -0.31627200	      0.23917400	      0.79121600	     -0.20506600	      0.23613200	      0.78407100	     -0.25961000	      0.27706600	      0.37725000	     -0.14087100	      0.44793200	      0.39192900	     -0.34351800	      0.26680800	      0.38478000	     -0.24008300	      0.47505100	      0.39555400	     -0.24086800	      0.19419800	      0.06093000	     -0.16428600	      0.44865100	      0.07525700	     -0.33358500	      0.19468300	      0.07100600	     -0.22358400	      0.46122000	      0.08010300	     -0.27281600	      0.28335400	      1.13983300	     -0.21648400	      0.36720700	      1.09223300	     -0.15769500	      0.35687300	      1.09547200	     -0.28668200	      0.35629900	      1.08247800	     -0.22463900	      0.37469600	      0.93976400	     -0.22890200	      0.29676300	      0.45771800	     -0.05428400	      0.52939200	      0.54061900	     -0.34842200	      0.33168800	      0.51989100	     -0.11613100	      0.45704600	      0.56885000	     -0.28396100	      0.33010100	      0.43907500	     -0.14152900	      0.48335300	      0.48508600	     -0.27545400	      0.21010000	      0.15862600	     -0.08662600	      0.53210500	      0.17549400	     -0.35819000	      0.22635800	      0.21376700	     -0.14509300	      0.48206700	      0.23062900	     -0.32387500	      0.29229600	      0.03792700	     -0.19920200	      0.54764600	      0.06075400	     -0.32210400	      2.09442674	    295.61803321	     -5.10208099	      0.30068152	      0.00000000	     -0.20494885	      0.00000000	      0.00000000	      0.00000000	      0.69054785	      0.00000000	     -0.28669067	      0.00000000	      1.25103931	      0.00000000	      0.00000000	      0.00000000	      0.00000000	      0.32446951	      0.68393874	     -0.22597352	      0.31893885	      0.68927044	     -0.15932798	      0.31754014	      0.69035733	     -0.28514442	      0.27345660	      0.38294783	     -0.19091885	      0.45661014	      0.39447919	     -0.29434311	      0.19711575	      0.06093676	     -0.19765852	      0.46263355	      0.07476000	     -0.30204970	      0.38263661	      0.75464022	     -0.22239211	      0.38368025	      0.75382930	     -0.12851222	      0.38159293	      0.75545114	     -0.31627202	      0.23917405	      0.79121566	     -0.20506610	      0.23613191	      0.78407127	     -0.25960976	      0.27706641	      0.37725049	     -0.14087127	      0.44793189	      0.39192903	     -0.34351817	      0.26680791	      0.38478035	     -0.24008302	      0.47505057	      0.39555416	     -0.24086753	      0.19419824	      0.06092994	     -0.16428581	      0.44865134	      0.07525672	     -0.33358538	      0.19468266	      0.07100558	     -0.22358447	      0.46122006	      0.08010256	     -0.27281570	      0.28335410	      1.13983285	     -0.21648432	      0.36720732	      1.09223294	     -0.15769464	      0.35687265	      1.09547150	     -0.28668231	      0.35629889	      1.08247817	     -0.22463930	      0.37469605	      0.93976361	     -0.22890180	      0.29676342	      0.45771843	     -0.05428422	      0.52939153	      0.54061931	     -0.34842157	      0.33168837	      0.51989084	     -0.11613097	      0.45704597	      0.56884998	     -0.28396079	      0.33010116	      0.43907452	     -0.14152944	      0.48335323	      0.48508623	     -0.27545404	      0.21010026	      0.15862595	     -0.08662564	      0.53210455	      0.17549393	     -0.35819036	      0.22635843	      0.21376725	     -0.14509287	      0.48206732	      0.23062877	     -0.32387456	      0.29229558	      0.03792701	     -0.19920203	      0.54764622	      0.06075436	     -0.32210380
